grf
version=1
nRows=11
nColumns=37
inDegrees=no
endheader
time	ground_force_1_vx	ground_force_1_vy	ground_force_1_vz	ground_force_1_px	ground_force_1_py	ground_force_1_pz	ground_moment_1_mx	ground_moment_1_my	ground_moment_1_mz	ground_force_2_vx	ground_force_2_vy	ground_force_2_vz	ground_force_2_px	ground_force_2_py	ground_force_2_pz	ground_moment_2_mx	ground_moment_2_my	ground_moment_2_mz	ground_force_3_vx	ground_force_3_vy	ground_force_3_vz	ground_force_3_px	ground_force_3_py	ground_force_3_pz	ground_moment_3_mx	ground_moment_3_my	ground_moment_3_mz	ground_force_4_vx	ground_force_4_vy	ground_force_4_vz	ground_force_4_px	ground_force_4_py	ground_force_4_pz	ground_moment_4_mx	ground_moment_4_my	ground_moment_4_mz
      0.00000000	      0.00000000	     -0.00000000	      0.00000000	      0.00000000	      0.00000000	      0.00000000	      0.00000000	      0.00000000	      0.00000000	     -4.90376949	     -4.10280466	   -568.66424561	   -306.00009724	  -1027.92955765	      0.00000000	      0.00000000	      0.00000000	   2840.19254767	      3.81456416	      4.67638459	    -54.12771988	   -309.62187887	   -824.15581465	      0.00000000	      0.00000000	     -0.00000000	  -1705.43276644	      0.00000000	     -0.00000000	      0.00000000	      0.00000000	      0.00000000	      0.00000000	      0.00000000	      0.00000000	      0.00000000
      0.01000000	      0.00000000	     -0.00000000	      0.00000000	      0.00000000	      0.00000000	      0.00000000	      0.00000000	      0.00000000	      0.00000000	     -4.18119907	     -4.11460400	   -568.97290039	   -306.04558782	  -1029.22934779	      0.00000000	      0.00000000	      0.00000000	   3189.13901439	      3.46217792	      4.59028118	    -53.82736588	   -304.89501384	   -822.58707556	      0.00000000	      0.00000000	     -0.00000000	  -1707.18252498	      0.00000000	     -0.00000000	      0.00000000	      0.00000000	      0.00000000	      0.00000000	      0.00000000	      0.00000000	      0.00000000
      0.02000000	      0.00000000	     -0.00000000	      0.00000000	      0.00000000	      0.00000000	      0.00000000	      0.00000000	      0.00000000	      0.00000000	     -4.10673857	     -4.72085905	   -568.64392090	   -306.53528742	  -1028.45297275	      0.00000000	      0.00000000	      0.00000000	   3024.96803606	      3.47007053	      4.68104904	    -54.47783661	   -305.74075872	   -822.79950497	      0.00000000	      0.00000000	     -0.00000000	  -1709.80189189	      0.00000000	     -0.00000000	      0.00000000	      0.00000000	      0.00000000	      0.00000000	      0.00000000	      0.00000000	      0.00000000
      0.03000000	      0.00000000	     -0.00000000	      0.00000000	      0.00000000	      0.00000000	      0.00000000	      0.00000000	      0.00000000	      0.00000000	     -3.82663393	     -5.16956329	   -570.04492188	   -306.80523353	  -1028.91148587	      0.00000000	      0.00000000	      0.00000000	   3087.09707000	      3.37902400	      5.10670060	    -53.40968323	   -303.90466869	   -822.23396991	      0.00000000	      0.00000000	     -0.00000000	  -1742.00888983	      0.00000000	     -0.00000000	      0.00000000	      0.00000000	      0.00000000	      0.00000000	      0.00000000	      0.00000000	      0.00000000
      0.04000000	      0.00000000	     -0.00000000	      0.00000000	      0.00000000	      0.00000000	      0.00000000	      0.00000000	      0.00000000	      0.00000000	     -3.90236831	     -5.85973310	   -570.38562012	   -307.01471494	  -1028.70093860	      0.00000000	      0.00000000	      0.00000000	   2825.81492582	      3.29070468	      4.86327143	    -52.03461838	   -302.95680330	   -823.78075703	      0.00000000	      0.00000000	     -0.00000000	  -1833.11777012	      0.00000000	     -0.00000000	      0.00000000	      0.00000000	      0.00000000	      0.00000000	      0.00000000	      0.00000000	      0.00000000
      0.05000000	      0.00000000	     -0.00000000	      0.00000000	      0.00000000	      0.00000000	      0.00000000	      0.00000000	      0.00000000	      0.00000000	     -3.29401684	     -6.05410147	   -571.13214111	   -307.44951290	  -1028.24150555	      0.00000000	      0.00000000	      0.00000000	   2921.86933511	      3.37976001	      5.21969050	    -51.05648804	   -310.71015811	   -832.92214878	      0.00000000	      0.00000000	     -0.00000000	  -1707.22586405	      0.00000000	     -0.00000000	      0.00000000	      0.00000000	      0.00000000	      0.00000000	      0.00000000	      0.00000000	      0.00000000
      0.06000000	      0.00000000	     -0.00000000	      0.00000000	      0.00000000	      0.00000000	      0.00000000	      0.00000000	      0.00000000	      0.00000000	     -3.14699006	     -6.04681015	   -571.79833984	   -307.61403979	  -1028.83017361	      0.00000000	      0.00000000	      0.00000000	   3060.19176163	      3.53624293	      5.12569110	    -53.05905151	   -304.98229997	   -818.67829563	      0.00000000	      0.00000000	     -0.00000000	  -1809.35307206	      0.00000000	     -0.00000000	      0.00000000	      0.00000000	      0.00000000	      0.00000000	      0.00000000	      0.00000000	      0.00000000
      0.07000000	      0.00000000	     -0.00000000	      0.00000000	      0.00000000	      0.00000000	      0.00000000	      0.00000000	      0.00000000	      0.00000000	     -3.03315735	     -6.05007172	   -569.02990723	   -307.56007485	  -1027.87130625	      0.00000000	      0.00000000	      0.00000000	   3060.29095993	      3.45658991	      5.13200968	    -53.40787125	   -304.88090986	   -813.75376844	      0.00000000	      0.00000000	     -0.00000000	  -1617.31038642	      0.00000000	     -0.00000000	      0.00000000	      0.00000000	      0.00000000	      0.00000000	      0.00000000	      0.00000000	      0.00000000
      0.08000000	      0.00000000	     -0.00000000	      0.00000000	      0.00000000	      0.00000000	      0.00000000	      0.00000000	      0.00000000	      0.00000000	     -3.03689051	     -5.77855682	   -570.79791260	   -307.21619709	  -1029.06075330	      0.00000000	      0.00000000	      0.00000000	   2808.54942412	      3.98872397	      5.20448411	    -51.33812332	   -301.36539070	   -825.78760606	      0.00000000	      0.00000000	     -0.00000000	  -1933.69945637	      0.00000000	     -0.00000000	      0.00000000	      0.00000000	      0.00000000	      0.00000000	      0.00000000	      0.00000000	      0.00000000
      0.09000000	      0.00000000	     -0.00000000	      0.00000000	      0.00000000	      0.00000000	      0.00000000	      0.00000000	      0.00000000	      0.00000000	     -3.48690677	     -5.69281054	   -572.06005859	   -307.36466683	  -1030.02285719	      0.00000000	      0.00000000	      0.00000000	   2894.64701485	      3.81118771	      5.02761283	    -51.63457108	   -305.84701223	   -823.97122357	      0.00000000	      0.00000000	     -0.00000000	  -1836.85109977	      0.00000000	     -0.00000000	      0.00000000	      0.00000000	      0.00000000	      0.00000000	      0.00000000	      0.00000000	      0.00000000
      0.10000000	      0.00000000	     -0.00000000	      0.00000000	      0.00000000	      0.00000000	      0.00000000	      0.00000000	      0.00000000	      0.00000000	     -3.56842041	     -5.34782410	   -570.27532959	   -307.69448608	  -1029.43649399	      0.00000000	      0.00000000	      0.00000000	   2673.04128227	      3.81105734	      5.54331603	    -52.28992462	   -306.88481839	   -819.91788809	      0.00000000	      0.00000000	     -0.00000000	  -1661.79010147	      0.00000000	     -0.00000000	      0.00000000	      0.00000000	      0.00000000	      0.00000000	      0.00000000	      0.00000000	      0.00000000
